<svg xmlns="http://www.w3.org/2000/svg" xmlns:xlink="http://www.w3.org/1999/xlink" width="274.714" height="41.551" viewBox="0 0 274.714 41.551">
  <defs>
    <linearGradient id="linear-gradient" x1="1.02" y1="1.89" x2="0.399" y2="0.278" gradientUnits="objectBoundingBox">
      <stop offset="0" stop-color="#fefefe"/>
      <stop offset="1" stop-color="#2fadbb"/>
    </linearGradient>
  </defs>
  <g id="gpllongs" transform="translate(0 -0.049)">
    <path id="Path_2" data-name="Path 2" d="M132,233.7v2.9a16.7,16.7,0,0,1-16.6,16.7,16.4,16.4,0,0,1-14-7.8,29.3,29.3,0,0,0,7.3-.4,10.3,10.3,0,0,0,6.7,2.4,10.9,10.9,0,0,0,10.4-8h-3.4a40.4,40.4,0,0,0,6.8-5.8Z" transform="translate(-89.9 -217.8)" fill="#2aafbe"/>
    <path id="Path_3" data-name="Path 3" d="M115.4,220v5.8a10.8,10.8,0,0,0-6.7,19.3,29.3,29.3,0,0,1-7.3.4,15.8,15.8,0,0,1-2.6-8.9A16.6,16.6,0,0,1,115.4,220Zm1.1,13.7v5.8h5.9a40.4,40.4,0,0,0,6.8-5.8Z" transform="translate(-89.9 -217.8)" fill="url(#linear-gradient)"/>
    <path id="Path_4" data-name="Path 4" d="M135.1,239.6l2.3,1.7,2.2,1.9a22,22,0,0,1,2,2.3,7.9,7.9,0,0,1,1.3,3.1,4.1,4.1,0,0,1,.1,1.9,4,4,0,0,1-.7,1.9,4.1,4.1,0,0,1-1.5,1.7l-1.8.8a10.2,10.2,0,0,1-3.4.3l-3.2-.2a47.6,47.6,0,0,1-11.4-3.7,80,80,0,0,1-10.4-5.6,79,79,0,0,1-9.4-7,41.7,41.7,0,0,1-4.3-4.1A43.1,43.1,0,0,1,93,230a24,24,0,0,1-1.6-2.7,12.6,12.6,0,0,1-1.3-3.1,9,9,0,0,1-.2-1.8,5.4,5.4,0,0,1,.5-2.1,5,5,0,0,1,1.5-1.7l1.8-.6a9.1,9.1,0,0,1,3.3,0,15.3,15.3,0,0,1,2.9.7,24.7,24.7,0,0,1,5.3,2.2l-2.8-.4-2.8-.4H96.9a9.2,9.2,0,0,0-2.5.5l-.8.4a.9.9,0,0,0-.3.6,2.7,2.7,0,0,0,.3,1.6,15,15,0,0,0,2.8,4.1,56.3,56.3,0,0,0,8.1,7.3c2.9,2.3,6,4.4,9.1,6.4s6.4,3.8,9.7,5.5l5,2.3a29.5,29.5,0,0,0,5,1.7l2.5.6h2.3l.9-.2.5-.3a2.6,2.6,0,0,0,.6-1.6,5.7,5.7,0,0,0-.6-2.4,13.4,13.4,0,0,0-1.2-2.4c-.4-.8-1-1.5-1.5-2.3Z" transform="translate(-89.9 -217.8)" fill="#1e353d"/>
    <g id="Group_1" data-name="Group 1">
      <path id="Path_5" data-name="Path 5" d="M162.3,235.4h-5.6a3.6,3.6,0,0,0-2.1.5,2.1,2.1,0,0,0-.8,1.7v13.8H148V229.7h5.8v4l4-4h4.5Z" transform="translate(-89.9 -217.8)" fill="#1e353d"/>
      <path id="Path_6" data-name="Path 6" d="M177.5,229.7c5.3,0,7.9,2.1,7.9,6.5v8.6c0,2.2-.6,3.9-2,5s-3.3,1.6-5.9,1.6h-4.4c-2.6,0-4.6-.5-5.9-1.6a6.3,6.3,0,0,1-2-5v-8.6c0-4.4,2.6-6.5,7.9-6.5Zm-.8,16a3.3,3.3,0,0,0,2.1-.6,1.8,1.8,0,0,0,.8-1.6v-5.9a2.1,2.1,0,0,0-.8-1.7,4.1,4.1,0,0,0-2.1-.5h-2.8a4.1,4.1,0,0,0-2.1.5,1.9,1.9,0,0,0-.7,1.7v12.1l4-4Z" transform="translate(-89.9 -217.8)" fill="#1e353d"/>
      <path id="Path_7" data-name="Path 7" d="M194.2,229.7v13.8a1.8,1.8,0,0,0,.7,1.6,3.3,3.3,0,0,0,2.1.6h5.7v-16h5.8v21.7h-5.8v-4l-4.1,4h-2.4c-5.3,0-7.9-2.2-7.9-6.5V229.7Z" transform="translate(-89.9 -217.8)" fill="#1e353d"/>
      <path id="Path_8" data-name="Path 8" d="M211.4,259.4V229.7h5.9v4l4-4h2.4c2.6,0,4.6.5,5.9,1.6a5.9,5.9,0,0,1,2,4.9v8.7c0,4.3-2.6,6.5-7.9,6.5h-6.4v8Zm11.5-24h-5.6v14.3l4-4h1.6a3.3,3.3,0,0,0,2.1-.6,1.8,1.8,0,0,0,.8-1.6v-5.9a1.8,1.8,0,0,0-.8-1.6A3.3,3.3,0,0,0,222.9,235.4Z" transform="translate(-89.9 -217.8)" fill="#1e353d"/>
      <path id="Path_9" data-name="Path 9" d="M234.5,251.4V221.7h5.8v29.7Z" transform="translate(-89.9 -217.8)" fill="#1e353d"/>
      <path id="Path_10" data-name="Path 10" d="M257.6,237.7a3,3,0,0,0-.2-1,2.2,2.2,0,0,0-.5-.8,4.5,4.5,0,0,0-2.2-.5H243.2l5.7-5.7h7.4a9.2,9.2,0,0,1,5.2,1.6,6.1,6.1,0,0,1,1.9,4.9v15.2h-5.8v-4l-4,4H243.2v-7.2c0-4.3,2.7-6.5,8-6.5Zm-5.6,5.7a3.4,3.4,0,0,0-2.2.6,1.8,1.8,0,0,0-.7,1.6h8.5v-2.3Z" transform="translate(-89.9 -217.8)" fill="#1e353d"/>
      <path id="Path_11" data-name="Path 11" d="M280.7,251.4V237.6a2.1,2.1,0,0,0-.8-1.7,4.1,4.1,0,0,0-2.1-.5h-5.6v16h-5.9V229.7h5.9v4l4-4h2.4c5.3,0,7.9,2.1,7.9,6.5v15.2Z" transform="translate(-89.9 -217.8)" fill="#1e353d"/>
      <path id="Path_12" data-name="Path 12" d="M298.1,245.7h11.5v5.7H297.3c-2.6,0-4.6-.5-5.9-1.6a6.3,6.3,0,0,1-2-5v-8.6c0-4.4,2.7-6.5,7.9-6.5h12.3l-5.7,5.7h-5.8a4.1,4.1,0,0,0-2.1.5,2.1,2.1,0,0,0-.7,1.7v5.9a1.8,1.8,0,0,0,.7,1.6A3.3,3.3,0,0,0,298.1,245.7Z" transform="translate(-89.9 -217.8)" fill="#1e353d"/>
      <path id="Path_13" data-name="Path 13" d="M318.4,221.7v5.7h-5.9v-5.7Zm-5.9,29.7h5.9V229.7h-5.9Z" transform="translate(-89.9 -217.8)" fill="#1e353d"/>
      <path id="Path_14" data-name="Path 14" d="M335.6,251.4V237.6a2.1,2.1,0,0,0-.7-1.7,4.5,4.5,0,0,0-2.2-.5h-5.6v16h-5.9V229.7h5.9v4l4-4h2.4c5.3,0,8,2.1,8,6.5v15.2Z" transform="translate(-89.9 -217.8)" fill="#1e353d"/>
      <path id="Path_15" data-name="Path 15" d="M364.6,252.9a6,6,0,0,1-2,4.9c-1.4,1.1-3.3,1.6-6,1.6H344.3l5.7-5.7h5.8a4.2,4.2,0,0,0,2.2-.5,2.2,2.2,0,0,0,.7-1.6v-4.2l-4,4h-2.4c-2.7,0-4.7-.6-6-1.7a6,6,0,0,1-2-4.9v-8.6c0-4.4,2.7-6.5,8-6.5h4.3c5.3,0,8,2.1,8,6.5Zm-14.4-9.4a1.7,1.7,0,0,0,.7,1.6,3.4,3.4,0,0,0,2.2.6h5.6v-8.1a2.2,2.2,0,0,0-.7-1.7,4.2,4.2,0,0,0-2.2-.5h-2.7a4.2,4.2,0,0,0-2.2.5,1.9,1.9,0,0,0-.7,1.7Z" transform="translate(-89.9 -217.8)" fill="#1e353d"/>
      <rect id="r1" data-name="Rectangle 2" width="11.1" height="5.8" transform="translate(26.5 2.199)" fill="#56bcc7"/>
      <rect id="r2" data-name="Rectangle 1" width="19.5" height="5.8" transform="translate(26.5 8.999)" fill="#56bcc7"/>
    </g>
  </g>
</svg>
