<svg xmlns="http://www.w3.org/2000/svg" id="download" width="935.613" height="258.85" viewBox="0 0 935.613 258.85">
  <g id="Group_6" data-name="Group 6">
    <g id="Group_4" data-name="Group 4" transform="translate(0 53.351)">
      <path id="Path_2" data-name="Path 2" d="M255.886,5.4c-42.483,0-66.194,27.663-73.11,56.315-7.9-14.82-13.832-33.591-17.784-52.363H106.7v73.11c0,26.675-11.856,46.435-35.567,46.435s-37.543-19.76-37.543-46.435V9.352H0v73.11C0,104.2,6.916,122.969,19.76,136.8s30.627,21.735,51.375,21.735c40.507,0,69.158-31.615,69.158-76.074v-49.4c3.952,15.808,14.82,47.423,33.591,74.1L156.1,210.9h34.579l11.856-73.11a144.527,144.527,0,0,0,12.844,8.892,87.892,87.892,0,0,0,38.531,11.856h2.964c42.483,0,76.074-32.6,76.074-77.062S298.368,5.4,255.886,5.4m0,122.509c-25.687,0-43.471-19.759-48.411-27.663,5.928-49.4,24.7-65.206,48.411-65.206S297.38,53.811,297.38,81.474c.988,27.663-17.784,46.435-41.495,46.435" transform="translate(0 -5.4)" fill="#14a800"/>
      <path id="Path_3" data-name="Path 3" d="M105.391,23.757V7.949H71.8V152.193h33.591V95.879c0-34.579,2.964-60.266,50.387-56.315V5.973C134.042,4,117.247,8.937,105.391,23.757" transform="translate(637.566 -3.997)" fill="#474747" style="&#10;    fill: #1e353d;&#10;"/>
    </g>
    <path id="Path_4" data-name="Path 4" d="M211.336,5.8,187.624,106.573,160.949,5.8H118.466L91.791,106.573,68.079,5.8H33.5L71.043,150.044H111.55L139.213,47.295l28.651,102.749h40.507L247.891,5.8Z" transform="translate(297.472 51.503)" fill="#474747" style="&#10;    fill: #1e353d;&#10;"/>
    <g id="Group_5" data-name="Group 5" transform="translate(543.386)">
      <path id="Path_5" data-name="Path 5" d="M131.074,5.4C88.591,5.4,55,38,55,82.462s33.591,77.062,76.074,77.062,76.074-32.6,76.074-77.062S173.557,5.4,131.074,5.4m0,123.5c-23.711,0-41.495-18.772-41.495-46.435s17.784-46.435,41.495-46.435S172.569,54.8,172.569,82.462,154.785,128.9,131.074,128.9" transform="translate(-55 47.951)" fill="#474747" style="&#10;    fill: #1e353d;&#10;"/>
      <path id="Path_6" data-name="Path 6" d="M115.391,130.413h7.9l47.423,71.134h38.531L154.91,122.509c26.675-9.88,43.471-37.543,43.471-66.194H164.79c0,31.615-24.7,43.471-49.4,43.471V0H81.8V201.547h33.591Z" transform="translate(182.977)" fill="#474747" style="&#10;    fill: #1e353d;&#10;"/>
    </g>
  </g>
</svg>